<svg id="Calendar-amico" xmlns="http://www.w3.org/2000/svg" width="712.948" height="647.292" viewBox="0 0 712.948 647.292">
  <g id="freepik--Floor--inject-5" transform="translate(0 323.407)">
    <path id="freepik--SUELO--inject-5" d="M644.378,521c-132.69,63.229-347.818,63.229-480.508,0s-132.673-165.738,0-229.017,347.818-63.246,480.508,0S777.051,457.75,644.378,521Z" transform="translate(-64.359 -244.533)" fill="#ebebeb" opacity="0.5"/>
  </g>
  <g id="freepik--Shadows--inject-5" transform="translate(58.342 394.139)">
    <ellipse id="freepik--Shadow--inject-5" cx="91.686" cy="43.705" rx="91.686" ry="43.705" transform="translate(0)" fill="#e0e0e0"/>
    <path id="freepik--shadow--inject-5-2" data-name="freepik--shadow--inject-5" d="M253.972,438.783c24.5,11.685,64.207,11.685,88.7,0s24.5-30.6,0-42.28-64.207-11.6-88.7,0S229.409,427.115,253.972,438.783Z" transform="translate(-23.629 -221.103)" fill="#e0e0e0"/>
  </g>
  <g id="freepik--Plants--inject-5" transform="translate(363.653 318.055)">
    <g id="freepik--plants--inject-5-2" data-name="freepik--plants--inject-5">
      <path id="Path_208" data-name="Path 208" d="M81.1,385.97,67.622,378.2s-7.11-31.706,3.48-71.98,41.136-70.389,57.064-64.074,15.513,18.231,6.729,30.314C127.6,282.4,103.952,306.6,92.582,334.475A153.424,153.424,0,0,0,81.1,385.97Z" transform="translate(173.389 -241.304)" fill="#7436b4"/>
      <path id="Path_209" data-name="Path 209" d="M81.1,385.97,67.622,378.2s-7.11-31.706,3.48-71.98,41.136-70.389,57.064-64.074,15.513,18.231,6.729,30.314C127.6,282.4,103.952,306.6,92.582,334.475A153.424,153.424,0,0,0,81.1,385.97Z" transform="translate(173.389 -241.304)" opacity="0.1"/>
      <path id="Path_210" data-name="Path 210" d="M76.585,379.581H76.7a.829.829,0,0,0,.7-.928c-9.2-66.3,31.888-119.895,50.583-131.082a.829.829,0,1,0-.845-1.409C108.158,257.5,66.442,311.81,75.756,378.885a.845.845,0,0,0,.829.7Z" transform="translate(170.724 -238.229)" fill="#fff"/>
      <path id="Path_211" data-name="Path 211" d="M51.368,365.773l20.187,11.6A38.484,38.484,0,0,1,85.029,373.5c8.585-1.077,14.3-9.364,13.458-15.546-.564-4.177-1.906-8.933-1.26-13.16.564-3.779,4.226-7.176,7.641-8.5a28.175,28.175,0,0,1,8.983-1.276c4.856-.232,9.944-.779,14.038-3.315s7.11-7.607,5.784-12.3a16.574,16.574,0,0,0-4.226-6.381,20.321,20.321,0,0,1-4.491-6.232c-1.79-4.674,1.376-7.657,5.138-9.828,13.259-7.624,19.226-13.64,14.452-19.408s-17.883-8.287-31.325-1.226-24.6-.514-33.463.978c-13.889,2.32-14.7,12.132-12.977,20.651S51.318,310.1,47.059,320.328C43.86,327.753,41.241,352.15,51.368,365.773Z" transform="translate(203.118 -221.107)" fill="#7436b4"/>
      <path id="Path_212" data-name="Path 212" d="M51.024,368.471a.829.829,0,0,0,.829-.8c1.657-47.318,62.3-88.587,76.6-90.957a.829.829,0,0,0,.7-.945.845.845,0,0,0-.961-.679c-15.066,2.486-76.322,43.44-78,92.515a.829.829,0,0,0,.8.862Z" transform="translate(210.191 -219.098)" fill="#fff"/>
      <path id="Path_213" data-name="Path 213" d="M220.49,400.776c.663-8.287,7.06-22.441,16.574-32.518s24.629-14.916,33.976-10.872c8.7,3.779,6.779,15.447-4.707,22.358s-28.59,15.364-34.457,28.441l-11.336,15.7Z" transform="translate(-219.351 -165.932)" fill="#7436b4"/>
      <path id="Path_214" data-name="Path 214" d="M220.49,400.776c.663-8.287,7.06-22.441,16.574-32.518s24.629-14.916,33.976-10.872c8.7,3.779,6.779,15.447-4.707,22.358s-28.59,15.364-34.457,28.441l-11.336,15.7Z" transform="translate(-219.351 -165.932)" opacity="0.1"/>
      <path id="Path_215" data-name="Path 215" d="M226.455,414.263h-.166a1.127,1.127,0,0,1-.961-1.276c4.127-30.711,35.335-52.075,47.749-54.428a1.131,1.131,0,1,1,.431,2.221c-11.6,2.2-42,23.336-45.926,52.506A1.144,1.144,0,0,1,226.455,414.263Z" transform="translate(-225.317 -164.237)" fill="#fff"/>
      <path id="Path_216" data-name="Path 216" d="M226.716,420.978c1.657-4.558,8.022-11.8,17.751-17.4,10.756-6.215,23.9-8.419,27.314-13.64,4.094-6.3-.945-12.944-11.5-12.5s-30.131,13.259-34.8,34.523Z" transform="translate(-224.351 -151.826)" fill="#7436b4"/>
      <path id="Path_217" data-name="Path 217" d="M230.525,414.516h-.216a1.127,1.127,0,0,1-.895-1.342c3.132-15.745,25.955-32.054,40.705-32.733a1.193,1.193,0,0,1,1.193,1.077,1.16,1.16,0,0,1-1.094,1.193c-13.69.63-35.683,16.325-38.584,30.91a1.127,1.127,0,0,1-1.11.9Z" transform="translate(-228.955 -149.838)" fill="#fff"/>
    </g>
  </g>
  <g id="freepik--Calendar--inject-5" transform="translate(158.552)">
    <g id="freepik--calendar--inject-5-2" data-name="freepik--calendar--inject-5">
      <path id="Path_218" data-name="Path 218" d="M511.108,524.391a5.8,5.8,0,0,0,2.453-5.983L454.79,258.3a10.79,10.79,0,0,0-4.492-6.116L100.591,50.314A7.69,7.69,0,0,0,93.63,50.2a5.8,5.8,0,0,0-2.4,5.95l58.787,260.109a10.756,10.756,0,0,0,4.508,6.116L504.147,524.242A7.69,7.69,0,0,0,511.108,524.391Z" transform="translate(-37.035 -49.388)" fill="#f0f0f0"/>
      <path id="Path_219" data-name="Path 219" d="M452.119,260.457,510.89,520.666c.5,2.221-.7,3.116-2.685,1.972L158.5,320.769a10.756,10.756,0,0,1-4.508-6.116L95.285,54.461c-.5-2.237.7-3.116,2.685-1.972L447.677,254.358a10.806,10.806,0,0,1,4.442,6.1Z" transform="translate(-41.093 -47.701)" fill="#e6e6e6"/>
      <path id="Path_220" data-name="Path 220" d="M181.476,52.515a7.69,7.69,0,0,1,6.961.133L538.144,254.516a6.629,6.629,0,0,1,3,6.165L495.119,582.86a9.331,9.331,0,0,1-3.961,6.049,7.607,7.607,0,0,1-6.944-.133L134.572,386.958a6.629,6.629,0,0,1-3-6.182L177.449,58.564a9.314,9.314,0,0,1,4.027-6.049Z" transform="translate(-131.544 -47.86)" fill="#f0f0f0"/>
      <path id="Path_221" data-name="Path 221" d="M538.449,262.892,492.49,585.07a2.6,2.6,0,0,1-4.177,2.022L138.672,385.272a6.629,6.629,0,0,1-3-6.182L181.548,56.879a2.6,2.6,0,0,1,4.177-2.039L535.432,256.709A6.629,6.629,0,0,1,538.449,262.892Z" transform="translate(-135.643 -46.175)" fill="#fafafa"/>
      <path id="Path_222" data-name="Path 222" d="M187.531,354.394,98.032,302.7l-2.6,18.728,41.037,23.7s10.939,3.878,15.281,4.972S187.531,354.394,187.531,354.394Z" transform="translate(281.951 117.112)" fill="#e0e0e0"/>
      <path id="Path_223" data-name="Path 223" d="M139.695,314.01,126.27,408.149l54.462-70.439Z" transform="translate(237.637 124.547)" fill="#e6e6e6"/>
      <path id="Path_224" data-name="Path 224" d="M99.532,401.939l48.81-63.395a7.823,7.823,0,0,1,6.63-2.7l45.644,6.63a13.442,13.442,0,0,0,7.475-1.359c1.856-1.061,1.541-2.287-.7-2.718L154.938,328.3a7.21,7.21,0,0,0-6.63,2.536L92.736,405.751c-1.359,1.84-.961,2.453.895,1.376a24.081,24.081,0,0,0,5.9-5.187Z" transform="translate(265.983 133.89)" fill="#e0e0e0"/>
      <path id="Path_225" data-name="Path 225" d="M121.609,54.878a5.685,5.685,0,0,1,2.552-4.707,7.757,7.757,0,0,1,6.961.133L480.83,252.173a9.845,9.845,0,0,1,2.735,2.552,10.11,10.11,0,0,1,1.773,3.563l8.287,36.744-6.729,3.862L129.979,92.882l-8.287-36.728a5.965,5.965,0,0,1-.1-1.276Z" transform="translate(-67.5 -49.395)" fill="#7436b4"/>
      <path id="Path_226" data-name="Path 226" d="M125.783,54.461c-.5-2.237.7-3.116,2.685-1.972L478.175,254.358a10.806,10.806,0,0,1,4.491,6.1l8.287,36.744L134.07,91.189Z" transform="translate(-71.591 -47.701)" opacity="0.2"/>
      <path id="Path_227" data-name="Path 227" d="M121.64,177.175a9.712,9.712,0,0,1,1.757,3.547l8.287,36.744,6.729-3.878-8.287-36.744a10.11,10.11,0,0,0-1.773-3.563Z" transform="translate(287.629 32.034)" opacity="0.1"/>
      <path id="Path_228" data-name="Path 228" d="M127.66,54.868c.166-1.243,1.243-1.657,2.784-.68L480.152,256.041a9.463,9.463,0,0,1,2.735,2.569l6.729-3.895a9.844,9.844,0,0,0-2.735-2.552L137.173,50.294a7.757,7.757,0,0,0-6.961-.133A5.685,5.685,0,0,0,127.66,54.868Z" transform="translate(-73.551 -49.401)" fill="#fff" opacity="0.4"/>
      <path id="Path_229" data-name="Path 229" d="M137.763,61.647h0l.348-3.083a4.321,4.321,0,0,1,.1-.448.415.415,0,0,1,0-.133h0a9.4,9.4,0,0,1,3.829-5.469,7.69,7.69,0,0,1,6.961.133L498.708,254.516a6.215,6.215,0,0,1,2.4,2.751h0a6.231,6.231,0,0,1,.6,3.414l-6.63,46.158-6.729,3.895-356.751-206Z" transform="translate(-92.206 -47.86)" fill="#7436b4"/>
      <path id="Path_230" data-name="Path 230" d="M131.558,229.207l6.729-3.895,6.63-46.158a6.232,6.232,0,0,0-.6-3.414l-6.746,3.878a6.116,6.116,0,0,1,.613,3.414Z" transform="translate(264.651 33.651)" opacity="0.1"/>
      <path id="Path_231" data-name="Path 231" d="M132,57.984a2.552,2.552,0,0,1,4.044-1.459L485.751,258.394a6.116,6.116,0,0,1,2.4,2.751l6.613-3.878a6.348,6.348,0,0,0-2.4-2.768L142.657,52.647a7.69,7.69,0,0,0-6.961-.133,9.331,9.331,0,0,0-3.7,5.469Z" transform="translate(-85.896 -47.86)" fill="#fff" opacity="0.4"/>
      <path id="Path_232" data-name="Path 232" d="M171.307,354.8l4.177-29.352a2.088,2.088,0,0,1,3.315-1.657l30.479,17.6a5.271,5.271,0,0,1,2.4,4.972l-4.16,29.418a2.072,2.072,0,0,1-3.315,1.657l-30.479-17.6A5.254,5.254,0,0,1,171.307,354.8Z" transform="translate(132.072 130.713)" fill="#7436b4"/>
      <path id="Path_233" data-name="Path 233" d="M199.732,338.4l4.193-29.336a2.072,2.072,0,0,1,3.315-1.657l30.479,17.585a5.287,5.287,0,0,1,2.4,4.972l-4.193,29.352a2.072,2.072,0,0,1-3.315,1.657l-30.479-17.6a5.254,5.254,0,0,1-2.4-4.972Z" transform="translate(56.511 119.932)" fill="#ebebeb"/>
      <path id="Path_234" data-name="Path 234" d="M228.165,322l4.193-29.336A2.072,2.072,0,0,1,235.672,291l30.5,17.618a5.287,5.287,0,0,1,2.4,4.972l-4.193,29.352a2.072,2.072,0,0,1-3.315,1.657L230.584,327A5.254,5.254,0,0,1,228.165,322Z" transform="translate(-19.057 109.151)" fill="#ebebeb"/>
      <path id="Path_235" data-name="Path 235" d="M256.555,305.614l4.193-29.352a2.072,2.072,0,0,1,3.315-1.657l30.612,17.635a5.254,5.254,0,0,1,2.4,4.972l-4.193,29.336a2.072,2.072,0,0,1-3.315,1.657l-30.479-17.585a5.287,5.287,0,0,1-2.536-5.005Z" transform="translate(-94.633 98.37)" fill="#ebebeb"/>
      <path id="Path_236" data-name="Path 236" d="M285.05,289.24l4.193-29.419a2.072,2.072,0,0,1,3.315-1.657l30.479,17.6a5.254,5.254,0,0,1,2.4,4.972l-4.193,29.336a2.072,2.072,0,0,1-3.315,1.657l-30.546-17.552a5.287,5.287,0,0,1-2.337-4.939Z" transform="translate(-170.215 87.563)" fill="#ebebeb"/>
      <path id="Path_237" data-name="Path 237" d="M313.494,272.814l4.193-29.352A2.072,2.072,0,0,1,321,241.8l30.479,17.6a5.254,5.254,0,0,1,2.4,4.972l-4.177,29.4a2.072,2.072,0,0,1-3.315,1.657l-30.479-17.6a5.27,5.27,0,0,1-2.42-5.022Z" transform="translate(-245.794 76.808)" fill="#ebebeb"/>
      <path id="Path_238" data-name="Path 238" d="M341.93,256.464l4.193-29.352a2.072,2.072,0,0,1,3.315-1.657l30.479,17.6a5.27,5.27,0,0,1,2.4,4.972l-4.177,29.352a2.088,2.088,0,0,1-3.315,1.657l-30.479-17.6A5.271,5.271,0,0,1,341.93,256.464Z" transform="translate(-321.366 66.06)" fill="#ebebeb"/>
      <path id="Path_239" data-name="Path 239" d="M166.349,320.134l4.193-29.319a2.088,2.088,0,0,1,3.315-1.657l30.479,17.6a5.27,5.27,0,0,1,2.4,4.972l-4.177,29.352a2.088,2.088,0,0,1-3.315,1.657l-30.479-17.6A5.337,5.337,0,0,1,166.349,320.134Z" transform="translate(145.217 107.948)" fill="#7436b4"/>
      <path id="Path_240" data-name="Path 240" d="M194.786,303.748l4.193-29.352a2.088,2.088,0,0,1,3.315-1.657l30.479,17.6a5.27,5.27,0,0,1,2.4,4.972L231,324.664a2.088,2.088,0,0,1-3.315,1.657l-30.479-17.6a5.337,5.337,0,0,1-2.42-4.972Z" transform="translate(69.645 97.154)" fill="#ebebeb"/>
      <path id="Path_241" data-name="Path 241" d="M223.226,287.348,227.419,258a2.088,2.088,0,0,1,3.315-1.657l30.479,17.6a5.271,5.271,0,0,1,2.4,4.972l-4.177,29.352a2.088,2.088,0,0,1-3.315,1.657l-30.479-17.6A5.337,5.337,0,0,1,223.226,287.348Z" transform="translate(-5.931 86.373)" fill="#ebebeb"/>
      <path id="Path_242" data-name="Path 242" d="M251.663,270.948l4.193-29.352a2.088,2.088,0,0,1,3.315-1.657l30.446,17.635a5.287,5.287,0,0,1,2.4,4.972L287.843,291.9a2.088,2.088,0,0,1-3.315,1.657l-30.479-17.6a5.32,5.32,0,0,1-2.387-5.005Z" transform="translate(-81.454 75.592)" fill="#ebebeb"/>
      <path id="Path_243" data-name="Path 243" d="M280.094,254.547l4.193-29.336a2.072,2.072,0,0,1,3.315-1.657l30.5,17.585a5.287,5.287,0,0,1,2.4,4.972l-4.177,29.352a2.088,2.088,0,0,1-3.315,1.657L282.53,259.486a5.32,5.32,0,0,1-2.436-4.939Z" transform="translate(-157.071 64.811)" fill="#ebebeb"/>
      <path id="Path_244" data-name="Path 244" d="M308.56,238.141l4.193-29.319a2.072,2.072,0,0,1,3.315-1.657l30.463,17.618a5.254,5.254,0,0,1,2.4,4.972l-4.177,29.336a2.088,2.088,0,0,1-3.315,1.657l-30.479-17.6a5.32,5.32,0,0,1-2.4-5.005Z" transform="translate(-232.673 54.037)" fill="#ebebeb"/>
      <path id="Path_245" data-name="Path 245" d="M336.985,221.764l4.193-29.352a2.072,2.072,0,0,1,3.315-1.657l30.5,17.6a5.271,5.271,0,0,1,2.387,4.972L373.2,242.663a2.088,2.088,0,0,1-3.315,1.657L339.4,226.736a5.353,5.353,0,0,1-2.42-4.972Z" transform="translate(-308.234 43.249)" fill="#ebebeb"/>
      <path id="Path_246" data-name="Path 246" d="M161.391,285.458l4.177-29.352a2.088,2.088,0,0,1,3.315-1.657L199.4,272.2a5.32,5.32,0,0,1,2.4,4.972l-4.193,29.336a2.072,2.072,0,0,1-3.315,1.657l-30.5-17.734a5.287,5.287,0,0,1-2.4-4.972Z" transform="translate(158.379 85.131)" fill="#7436b4"/>
      <path id="Path_247" data-name="Path 247" d="M189.853,269.1l4.177-29.352a2.088,2.088,0,0,1,3.315-1.657l30.479,17.6a5.32,5.32,0,0,1,2.4,4.972l-4.193,29.352a2.088,2.088,0,0,1-3.315,1.657l-30.479-17.6a5.27,5.27,0,0,1-2.387-4.972Z" transform="translate(82.781 74.376)" fill="#ebebeb"/>
      <path id="Path_248" data-name="Path 248" d="M218.294,252.7l4.177-29.352a2.088,2.088,0,0,1,3.315-1.657l30.479,17.6a5.337,5.337,0,0,1,2.4,4.972l-4.193,29.352a2.088,2.088,0,0,1-3.315,1.657l-30.479-17.6a5.27,5.27,0,0,1-2.387-4.972Z" transform="translate(7.205 63.595)" fill="#ebebeb"/>
      <path id="Path_249" data-name="Path 249" d="M246.734,236.3l4.177-29.352a2.088,2.088,0,0,1,3.315-1.657l30.479,17.6a5.337,5.337,0,0,1,2.4,4.972l-4.193,29.352a2.088,2.088,0,0,1-3.315,1.657l-30.479-17.6A5.27,5.27,0,0,1,246.734,236.3Z" transform="translate(-68.371 52.814)" fill="#ebebeb"/>
      <path id="Path_250" data-name="Path 250" d="M275.174,219.9l4.177-29.352a2.088,2.088,0,0,1,3.315-1.657l30.479,17.6a5.337,5.337,0,0,1,2.4,4.972l-4.193,29.352a2.088,2.088,0,0,1-3.315,1.657l-30.479-17.6A5.27,5.27,0,0,1,275.174,219.9Z" transform="translate(-143.947 42.033)" fill="#ebebeb"/>
      <path id="Path_251" data-name="Path 251" d="M303.56,203.458l4.177-29.352a2.088,2.088,0,0,1,3.315-1.657L341.68,190.2a5.337,5.337,0,0,1,2.4,4.972l-4.193,29.352a2.088,2.088,0,0,1-3.315,1.657L306.029,208.43a5.254,5.254,0,0,1-2.469-4.972Z" transform="translate(-219.535 31.225)" fill="#ebebeb"/>
      <path id="Path_252" data-name="Path 252" d="M332.055,187.091l4.177-29.336a2.088,2.088,0,0,1,3.315-1.657l30.479,17.585a5.32,5.32,0,0,1,2.4,4.972l-4.193,29.352a2.088,2.088,0,0,1-3.315,1.657L334.376,192.03A5.254,5.254,0,0,1,332.055,187.091Z" transform="translate(-295.1 20.477)" fill="#ebebeb"/>
      <path id="Path_253" data-name="Path 253" d="M156.464,250.837l4.193-29.336a2.072,2.072,0,0,1,3.315-1.657l30.479,17.585a5.287,5.287,0,0,1,2.4,4.972l-4.226,29.352a2.072,2.072,0,0,1-3.315,1.657l-30.479-17.6a5.254,5.254,0,0,1-2.37-4.972Z" transform="translate(171.494 62.372)" fill="#7436b4"/>
      <path id="Path_254" data-name="Path 254" d="M184.9,234.457l4.193-29.336a2.072,2.072,0,0,1,3.315-1.657l30.479,17.6a5.254,5.254,0,0,1,2.4,4.972L221.1,255.374a2.072,2.072,0,0,1-3.315,1.657L187.3,239.43a5.254,5.254,0,0,1-2.4-4.972Z" transform="translate(95.921 51.604)" fill="#ebebeb"/>
      <path id="Path_255" data-name="Path 255" d="M213.339,218.054l4.193-29.352a2.072,2.072,0,0,1,3.315-1.657l30.479,17.6a5.254,5.254,0,0,1,2.4,4.972l-4.193,29.336a2.072,2.072,0,0,1-3.315,1.657l-30.479-17.585a5.287,5.287,0,0,1-2.4-4.972Z" transform="translate(20.347 40.81)" fill="#ebebeb"/>
      <path id="Path_256" data-name="Path 256" d="M241.778,201.654l4.193-29.352a2.072,2.072,0,0,1,3.315-1.657l30.479,17.6a5.254,5.254,0,0,1,2.4,4.972l-4.177,29.352a2.088,2.088,0,0,1-3.315,1.657l-30.479-17.6a5.287,5.287,0,0,1-2.42-4.972Z" transform="translate(-55.228 30.029)" fill="#ebebeb"/>
      <path id="Path_257" data-name="Path 257" d="M270.219,185.254l4.193-29.352a2.072,2.072,0,0,1,3.315-1.657l30.479,17.6a5.254,5.254,0,0,1,2.4,4.972l-4.177,29.352a2.088,2.088,0,0,1-3.315,1.657l-30.479-17.6a5.27,5.27,0,0,1-2.42-4.972Z" transform="translate(-130.805 19.248)" fill="#ebebeb"/>
      <path id="Path_258" data-name="Path 258" d="M298.639,168.854l4.193-29.352a2.072,2.072,0,0,1,3.315-1.657l30.479,17.6a5.27,5.27,0,0,1,2.4,4.972l-4.193,29.336a2.088,2.088,0,0,1-3.315,1.657l-30.479-17.6a5.271,5.271,0,0,1-2.4-4.956Z" transform="translate(-206.328 8.467)" fill="#ebebeb"/>
      <path id="Path_259" data-name="Path 259" d="M327.1,152.464l4.193-29.352a2.072,2.072,0,0,1,3.315-1.657l30.479,17.6a5.27,5.27,0,0,1,2.4,4.972l-4.177,29.352A2.088,2.088,0,0,1,360,175.037l-30.479-17.6a5.271,5.271,0,0,1-2.42-4.972Z" transform="translate(-281.957 -2.308)" fill="#ebebeb"/>
      <path id="Path_260" data-name="Path 260" d="M153.965,210.873l1.061-7.491a2.072,2.072,0,0,1,3.315-1.657l30.5,17.635a5.27,5.27,0,0,1,2.4,4.972l-1.044,7.491a2.088,2.088,0,0,1-3.315,1.657l-30.512-17.668a5.32,5.32,0,0,1-2.4-4.939Z" transform="translate(181.236 50.46)" fill="#e6e6e6"/>
      <path id="Path_261" data-name="Path 261" d="M182.41,194.473l1.061-7.491a2.072,2.072,0,0,1,3.315-1.657l30.5,17.635a5.27,5.27,0,0,1,2.4,4.972l-1.044,7.491a2.088,2.088,0,0,1-3.315,1.657l-30.5-17.6A5.32,5.32,0,0,1,182.41,194.473Z" transform="translate(105.655 39.679)" fill="#e6e6e6"/>
      <path id="Path_262" data-name="Path 262" d="M210.85,178.067l1.061-7.491a2.088,2.088,0,0,1,3.315-1.657l30.5,17.635a5.27,5.27,0,0,1,2.4,4.972l-1.044,7.491a2.072,2.072,0,0,1-3.315,1.657l-30.5-17.6A5.32,5.32,0,0,1,210.85,178.067Z" transform="translate(30.079 28.905)" fill="#e6e6e6"/>
      <path id="Path_263" data-name="Path 263" d="M239.288,161.683l1.061-7.508a2.088,2.088,0,0,1,3.315-1.657l30.5,17.635a5.271,5.271,0,0,1,2.4,4.972l-1.044,7.491a2.072,2.072,0,0,1-3.315,1.657l-30.5-17.585a5.353,5.353,0,0,1-2.42-5.005Z" transform="translate(-45.495 18.124)" fill="#e6e6e6"/>
      <path id="Path_264" data-name="Path 264" d="M267.729,145.283l1.061-7.508a2.088,2.088,0,0,1,3.315-1.657l30.5,17.635a5.287,5.287,0,0,1,2.4,4.972l-1.044,7.491a2.072,2.072,0,0,1-3.315,1.657l-30.5-17.585A5.353,5.353,0,0,1,267.729,145.283Z" transform="translate(-121.072 7.343)" fill="#e6e6e6"/>
      <path id="Path_265" data-name="Path 265" d="M296.17,128.883l1.061-7.491a2.072,2.072,0,0,1,3.315-1.657l30.5,17.618a5.287,5.287,0,0,1,2.4,4.972l-1.044,7.508a2.088,2.088,0,0,1-3.315,1.657l-30.5-17.6a5.337,5.337,0,0,1-2.42-5.005Z" transform="translate(-196.648 -3.438)" fill="#e6e6e6"/>
      <path id="Path_266" data-name="Path 266" d="M324.62,112.483l1.044-7.491a2.072,2.072,0,0,1,3.315-1.657l30.479,17.6a5.254,5.254,0,0,1,2.4,4.972l-1.044,7.491a2.088,2.088,0,0,1-3.315,1.657l-30.5-17.6A5.287,5.287,0,0,1,324.62,112.483Z" transform="translate(-272.218 -14.219)" fill="#e6e6e6"/>
      <path id="Path_267" data-name="Path 267" d="M168.47,185.16a12.032,12.032,0,0,0-5.7-11.071c-3.713-2.138-7.176-.663-7.757,3.315a11.983,11.983,0,0,0,5.718,11.071C164.426,190.613,167.89,189.138,168.47,185.16Z" transform="translate(202.281 31.921)" opacity="0.2"/>
      <path id="Path_268" data-name="Path 268" d="M196.939,168.784a12,12,0,0,0-5.7-11.071c-3.713-2.155-7.176-.68-7.757,3.315a11.966,11.966,0,0,0,5.718,11.055C192.912,174.154,196.376,172.679,196.939,168.784Z" transform="translate(126.627 21.149)" opacity="0.2"/>
      <path id="Path_269" data-name="Path 269" d="M225.349,152.334a12,12,0,0,0-5.7-11.071c-3.713-2.155-7.193-.68-7.757,3.315a11.983,11.983,0,0,0,5.7,11.055C221.305,157.77,224.786,156.3,225.349,152.334Z" transform="translate(51.131 10.335)" opacity="0.2"/>
      <path id="Path_270" data-name="Path 270" d="M282.2,119.5a12,12,0,0,0-5.7-11.071c-3.712-2.138-7.176-.663-7.74,3.315a11.933,11.933,0,0,0,5.7,11.071C278.168,124.936,281.632,123.478,282.2,119.5Z" transform="translate(-99.955 -11.242)" opacity="0.2"/>
      <path id="Path_271" data-name="Path 271" d="M310.669,103.084a11.966,11.966,0,0,0-5.7-11.071c-3.713-2.155-7.177-.679-7.757,3.315a11.983,11.983,0,0,0,5.718,11.071C306.641,108.52,310.105,107.045,310.669,103.084Z" transform="translate(-175.597 -22.041)" opacity="0.2"/>
      <path id="Path_272" data-name="Path 272" d="M339.079,86.674a12,12,0,0,0-5.7-11.071c-3.713-2.155-7.193-.68-7.757,3.315a11.983,11.983,0,0,0,5.7,11.055C335.118,92.11,338.433,90.635,339.079,86.674Z" transform="translate(-251.093 -32.828)" opacity="0.2"/>
      <path id="Path_273" data-name="Path 273" d="M158.035,154.361c4.972-2.9,9.845-3.315,13.557-1.177s5.768,6.514,5.768,12.331a30.082,30.082,0,0,1-1.193,8.038l-2.95-1.657a26.718,26.718,0,0,0,.829-6.348c0-4.574-1.459-7.939-4.11-9.464a7.06,7.06,0,0,0-3.563-.895,13.756,13.756,0,0,0-6.63,2.072c-8.817,5.1-15.994,17.535-15.994,27.711a18.089,18.089,0,0,0,.116,2.171,9.149,9.149,0,0,0,3.978,7.292,7.624,7.624,0,0,0,4.972.8,9.413,9.413,0,0,1,.414,3.315,12.046,12.046,0,0,1-1.873.149,10.16,10.16,0,0,1-5.2-1.359,11.751,11.751,0,0,1-5.42-8.519,21.547,21.547,0,0,1-.331-3.812C140.383,173.653,148.306,159.98,158.035,154.361Z" transform="translate(217.59 17.938)" fill="#f5f5f5"/>
      <path id="Path_274" data-name="Path 274" d="M186.495,137.941c4.972-2.9,9.845-3.315,13.557-1.177s5.768,6.513,5.768,12.331a30.082,30.082,0,0,1-1.193,8.038l-2.95-1.657a26.72,26.72,0,0,0,.829-6.348c0-4.574-1.458-7.939-4.11-9.464a7.06,7.06,0,0,0-3.563-.895,13.756,13.756,0,0,0-6.63,2.072c-8.817,5.1-15.994,17.535-15.994,27.711a18.08,18.08,0,0,0,.116,2.171,9.149,9.149,0,0,0,3.978,7.292,7.624,7.624,0,0,0,4.972.8,9.414,9.414,0,0,1,.414,3.315,12.043,12.043,0,0,1-1.873.149,10.159,10.159,0,0,1-5.2-1.359,11.751,11.751,0,0,1-5.42-8.519,21.542,21.542,0,0,1-.331-3.812C168.843,157.283,176.766,143.56,186.495,137.941Z" transform="translate(141.961 7.143)" fill="#f5f5f5"/>
      <path id="Path_275" data-name="Path 275" d="M214.9,121.531c4.972-2.9,9.845-3.315,13.557-1.177s5.768,6.513,5.768,12.331a30.083,30.083,0,0,1-1.193,8.038l-2.95-1.657a26.717,26.717,0,0,0,.829-6.348c0-4.574-1.459-7.939-4.11-9.464a7.06,7.06,0,0,0-3.563-.895,13.756,13.756,0,0,0-6.63,2.072c-8.817,5.1-15.994,17.535-15.994,27.711a18.064,18.064,0,0,0,.116,2.171,9.149,9.149,0,0,0,3.978,7.292,7.624,7.624,0,0,0,4.972.8,9.413,9.413,0,0,1,.414,3.315,12.054,12.054,0,0,1-1.873.149,10.16,10.16,0,0,1-5.2-1.359,11.751,11.751,0,0,1-5.42-8.519,21.547,21.547,0,0,1-.331-3.812C197.253,140.873,205.176,127.15,214.9,121.531Z" transform="translate(66.465 -3.644)" fill="#f5f5f5"/>
      <path id="Path_276" data-name="Path 276" d="M271.775,88.751c4.972-2.9,9.845-3.315,13.557-1.177s5.768,6.514,5.768,12.331a30.081,30.081,0,0,1-1.193,8.038l-2.95-1.657a26.719,26.719,0,0,0,.829-6.348c0-4.574-1.458-7.939-4.11-9.464a7.061,7.061,0,0,0-3.563-.895,13.756,13.756,0,0,0-6.63,2.072c-8.817,5.1-15.994,17.535-15.994,27.711a18.071,18.071,0,0,0,.116,2.171,9.149,9.149,0,0,0,3.978,7.292,7.624,7.624,0,0,0,4.972.8,9.414,9.414,0,0,1,.414,3.315,12.052,12.052,0,0,1-1.873.149,10.16,10.16,0,0,1-5.2-1.359,11.751,11.751,0,0,1-5.42-8.519,21.54,21.54,0,0,1-.332-3.812C254.124,108.093,262.046,94.37,271.775,88.751Z" transform="translate(-84.661 -25.193)" fill="#f5f5f5"/>
      <path id="Path_277" data-name="Path 277" d="M300.235,72.321c4.972-2.9,9.845-3.315,13.557-1.177s5.768,6.514,5.768,12.331a30.084,30.084,0,0,1-1.193,8.038l-2.95-1.657a26.713,26.713,0,0,0,.829-6.348c0-4.574-1.458-7.939-4.11-9.464a7.061,7.061,0,0,0-3.563-.895,13.756,13.756,0,0,0-6.63,2.072c-8.817,5.1-15.994,17.535-15.994,27.711a18.077,18.077,0,0,0,.116,2.171,9.149,9.149,0,0,0,3.978,7.292,7.624,7.624,0,0,0,4.972.8,9.413,9.413,0,0,1,.414,3.315,12.052,12.052,0,0,1-1.873.149,10.16,10.16,0,0,1-5.2-1.359,11.751,11.751,0,0,1-5.42-8.519,21.546,21.546,0,0,1-.332-3.812C282.584,91.68,290.506,77.94,300.235,72.321Z" transform="translate(-160.29 -35.994)" fill="#f5f5f5"/>
      <path id="Path_278" data-name="Path 278" d="M328.618,55.911c4.972-2.9,9.845-3.315,13.557-1.177s5.784,6.514,5.784,12.331a30.083,30.083,0,0,1-1.193,8.038l-2.95-1.657a26.716,26.716,0,0,0,.829-6.348c0-4.574-1.458-7.939-4.11-9.464a7.06,7.06,0,0,0-3.563-.895,13.756,13.756,0,0,0-6.629,2.072c-8.817,5.1-15.994,17.535-15.994,27.711a18.1,18.1,0,0,0,.116,2.171,9.149,9.149,0,0,0,3.978,7.292,7.624,7.624,0,0,0,4.972.8,9.413,9.413,0,0,1,.414,3.315,12.048,12.048,0,0,1-1.873.149,10.16,10.16,0,0,1-5.2-1.359,11.751,11.751,0,0,1-5.42-8.519A21.549,21.549,0,0,1,311,86.556C310.967,75.253,318.889,61.53,328.618,55.911Z" transform="translate(-235.76 -46.782)" fill="#f5f5f5"/>
    </g>
  </g>
  <g id="freepik--Device--inject-5" transform="translate(51.996 266.537)">
    <g id="freepik--Clock--inject-5">
      <path id="Path_279" data-name="Path 279" d="M354.619,315.616l11.138,19.342a5.328,5.328,0,1,1-9.116,5.519l-11.2-19.458c-1.077-1.856.083-4.558,2.6-6.016S353.542,313.809,354.619,315.616Z" transform="translate(-204.18 -141.955)" fill="#455a64"/>
      <path id="Path_280" data-name="Path 280" d="M432.025,298.192,412.684,309.33a5.27,5.27,0,1,1-5.4-9.05l19.458-11.12c1.856-1.077,4.558.083,6.016,2.6S433.882,297.115,432.025,298.192Z" transform="translate(-370.224 -158.59)" fill="#455a64"/>
      <path id="Path_281" data-name="Path 281" d="M347.857,254.1h.1l47.119-27.2h.133c10.342-5.884,24.6-4.972,40.324,4.077,31.606,18.231,57.229,62.632,57.229,99.128,0,18.231-6.381,30.977-16.673,36.976h-.083L428.886,394.3h-.116c-10.342,5.917-24.612,4.972-40.357-4.061-31.59-18.231-57.213-62.632-57.213-99.111C331.2,272.9,337.564,260.1,347.857,254.1Z" transform="translate(-307.485 -201.695)" fill="#7436b4"/>
      <path id="Path_282" data-name="Path 282" d="M331.17,371.4l46.407-26.75h.1c10.292-6.016,16.657-18.811,16.657-36.976,0-16.275-5.1-34.109-13.541-50.484l-47.119,27.2c8.453,16.375,13.541,34.208,13.541,50.484C347.18,352.605,341.081,365.235,331.17,371.4Z" transform="translate(-209.006 -179.342)" opacity="0.1"/>
      <ellipse id="Ellipse_1" data-name="Ellipse 1" cx="80.93" cy="46.722" rx="80.93" ry="46.722" transform="translate(80.93 215.865) rotate(-120)" fill="#fff" opacity="0.4"/>
      <path id="Path_283" data-name="Path 283" d="M437.765,371.079c18.1,0,20.054-20.452,20.054-29.253,0-32.186-23.551-72.925-51.379-89.068-7.094-4.094-13.922-6.248-19.756-6.248-18.1,0-20.054,20.452-20.054,29.253,0,32.186,23.551,72.925,51.379,89.068,7.11,4.094,13.939,6.248,19.756,6.248Z" transform="translate(-331.263 -186.363)" fill="#fafafa"/>
      <path id="Path_284" data-name="Path 284" d="M399.525,321.6a.746.746,0,0,0,.265,0,.845.845,0,0,0,.514-1.061l-12.679-36.214a.833.833,0,1,0-1.575.547L398.7,321.033A.812.812,0,0,0,399.525,321.6Z" transform="translate(-305.901 -161.874)" fill="#7436b4"/>
      <path id="Path_285" data-name="Path 285" d="M395.129,310.024a2.3,2.3,0,0,0,.978-.2l20.5-8.867V263.766a2.486,2.486,0,0,0-4.972,0v33.927l-17.5,7.574a2.486,2.486,0,0,0,.994,4.757Z" transform="translate(-333.194 -176.653)" fill="#37474f"/>
      <path id="Path_286" data-name="Path 286" d="M396.819,279.767c-3.713-2.155-6.729-.414-6.729,3.878a14.917,14.917,0,0,0,6.729,11.6c3.729,2.155,6.745.414,6.745-3.895a14.916,14.916,0,0,0-6.746-11.585Z" transform="translate(-315.891 -165.108)" fill="#7436b4"/>
      <path id="Path_287" data-name="Path 287" d="M336.051,279.592c8.121,14.038,23.419,20.4,34.921,13.756a29.387,29.387,0,1,0-29.419-50.882C330.085,249.262,327.963,265.538,336.051,279.592Z" transform="translate(-200.364 -191.618)" fill="#455a64"/>
      <path id="Path_288" data-name="Path 288" d="M370.108,287.528c-11.5,6.63-26.8.282-34.921-13.756a37.358,37.358,0,0,1-3.994-10.077c.464.613,13.988,17.85,30.794,12.994,17.1-4.972,20.319-18.115,18.844-29.319A29.385,29.385,0,0,1,370.108,287.528Z" transform="translate(-199.499 -185.797)" fill="#37474f"/>
      <path id="Path_289" data-name="Path 289" d="M328.769,247.918l8.718-4.972a5.27,5.27,0,1,1,5.4,9.05l-8.818,5.1c-1.873,1.077-4.574-.083-6.033-2.6S326.913,249,328.769,247.918Z" transform="translate(-153.436 -189.196)" fill="#7436b4"/>
      <path id="Path_290" data-name="Path 290" d="M415.589,226.894l-4.972-8.7a5.27,5.27,0,1,1,9.05-5.4l5.1,8.818c1.077,1.856,0,4.558-2.6,6.016S416.682,228.766,415.589,226.894Z" transform="translate(-370.294 -210.219)" fill="#7436b4"/>
      <path id="Path_291" data-name="Path 291" d="M445.16,228.288A29.423,29.423,0,0,0,394.2,257.706Z" transform="translate(-357.752 -208.017)" fill="#455a64"/>
      <path id="Path_292" data-name="Path 292" d="M406.573,217.84c-1.657,3.464-6.165,18.132,0,21.778s34.639-8.453,34.639-8.453l-41.1,23.734a29.4,29.4,0,0,1,6.464-37.059Z" transform="translate(-363.665 -205.21)" fill="#37474f"/>
    </g>
  </g>
  <g id="freepik--Character--inject-5" transform="translate(277.268 258.377)">
    <g id="freepik--character--inject-5-2" data-name="freepik--character--inject-5" transform="translate(0)">
      <path id="Path_293" data-name="Path 293" d="M278.02,286.424c29.336-39.429,38.982-43.821,44.5-45.164l-9.679,26.518-20.121,25.805" transform="translate(-274.376 -181.654)" fill="#ffa8a7"/>
      <path id="Path_294" data-name="Path 294" d="M311.427,241.067s-6.232-1.889-15.248,6.944-19.889,21.712-19.889,21.712,2.934,10.524,12.1,13.789l13.259-13.789Z" transform="translate(-260.415 -181.892)" fill="#7436b4"/>
      <path id="Path_295" data-name="Path 295" d="M311.427,241.067s-6.232-1.889-15.248,6.944-19.889,21.712-19.889,21.712,2.934,10.524,12.1,13.789l13.259-13.789Z" transform="translate(-260.415 -181.892)" opacity="0.1"/>
      <ellipse id="Ellipse_2" data-name="Ellipse 2" cx="16.839" cy="16.839" rx="16.839" ry="16.839" transform="matrix(-0.973, -0.23, 0.23, -0.973, 61.688, 41.227)" fill="#263238"/>
      <rect id="Rectangle_19022" data-name="Rectangle 19022" width="11.867" height="20.303" transform="translate(77.613 305.91)" fill="#ffa8a7"/>
      <path id="Path_296" data-name="Path 296" d="M288.867,401.746l-11.85.414-.6-21.5,11.867-.414Z" transform="translate(-238.071 -90.284)" fill="#ffa8a7"/>
      <path id="Path_297" data-name="Path 297" d="M311.57,292.747V374.8c.282,3.315,2.685,8.9,3.315,22.772.8,17.021-1.807,63.859-1.807,63.859s-5.552,5.519-13.408,0c0,0-10.524-66.859-12.662-83.714-1.856-14.718-4.972-54.694-4.972-54.694l-7.094,60.213s1.939,11.055,2.353,18.844-3.414,49.44-3.414,49.44A12.977,12.977,0,0,1,260.97,452s-8.121-62.4-9.348-69.444,4.458-89.83,4.458-89.83Z" transform="translate(-222.852 -147.818)" fill="#37474f"/>
      <path id="Path_298" data-name="Path 298" d="M297.626,244.8a27.316,27.316,0,0,1,4.889,1.144c3.315,1.276,4.757,5.287,5.536,8.817a41.807,41.807,0,0,1,.978,9.016v62.98c-8.287,9.049-37.324,13.259-55.489,0,0,0,.348-55.622,1.657-64.77,2.37-15.878,9.944-21.546,17.6-20.949l18.314,2.619Z" transform="translate(-220.312 -181.828)" fill="#7436b4"/>
      <path id="Path_299" data-name="Path 299" d="M266.983,225.16s-2.735,12.812-3.829,14.916a5.867,5.867,0,0,1-3.315,2.718l.2-9.033Z" transform="translate(-188.708 -192.238)" fill="#263238"/>
      <path id="Path_300" data-name="Path 300" d="M259.78,214.086a6.364,6.364,0,0,1,5.237,1.84c2.238,2.3.978,9.5-1.806,16.574l-5.154.58Z" transform="translate(-184.935 -199.544)" fill="#263238"/>
      <path id="Path_301" data-name="Path 301" d="M293.389,236.168c1.044.63,2.5-1.359,3.779-2.685s5.42-3.149,7.491,1.21-1.823,10.326-5.088,11.353c-5.635,1.757-6.48-1.856-6.48-1.856l-.431,20.319a18.115,18.115,0,0,1-13.673,10.375c-9.944,1.342-7.922-6.878-4.641-10.922V257.78a35.583,35.583,0,0,1-7.591.4c-4.143-.646-6.746-3.911-8.005-8.386-2.022-7.21-2.784-13.01-1.077-27.181,1.889-15.513,19.889-15.679,29.684-9.547S293.389,236.168,293.389,236.168Z" transform="translate(-221.809 -202.665)" fill="#ffa8a7"/>
      <path id="Path_302" data-name="Path 302" d="M299.533,240.539c.53,0,2.5-3.315,3.779-4.425,1.773-1.657-.514-16.275-.514-16.275a6.928,6.928,0,0,0-1.657-7.409c-2.42-2.685-6.5-2.967-13.441-4.061-3.646-.58-9.182-1.657-12.828-2.271-4.342-.812-7.939-1.657-11.005.994a7.674,7.674,0,0,0-2.138,8.635,7.278,7.278,0,0,0,1.243,1.856c.878.978,1.028,2.3,2.271,2.7,0,0,2.635,2.387,9.232,3.182a97.4,97.4,0,0,0,18.231-.348c1.923-.265,2.436.348,3.464,5.4C297.047,232.981,297.793,240.505,299.533,240.539Z" transform="translate(-227.953 -205.296)" fill="#263238"/>
      <path id="Path_303" data-name="Path 303" d="M258.533,216.854l6.232-3.315a3.414,3.414,0,0,0-4.707-1.558,3.729,3.729,0,0,0-1.525,4.873Z" transform="translate(-183.705 -201.168)" fill="#263238"/>
      <path id="Path_304" data-name="Path 304" d="M265.14,241.719s9.232-1.856,12.463-3.58a10.624,10.624,0,0,0,4.475-4.409,14.717,14.717,0,0,1-2.536,5.2c-2.37,3.016-14.4,5.254-14.4,5.254Z" transform="translate(-212.587 -186.604)" fill="#f28f8f"/>
      <path id="Path_305" data-name="Path 305" d="M272.141,225.9a1.873,1.873,0,1,0,.525-1.351,1.856,1.856,0,0,0-.525,1.351Z" transform="translate(-217.964 -193.013)" fill="#263238"/>
      <path id="Path_306" data-name="Path 306" d="M270.642,221.423l3.961,2.171a2.387,2.387,0,0,0-.928-3.149,2.2,2.2,0,0,0-3.033.978Z" transform="translate(-214.493 -195.512)" fill="#263238"/>
      <path id="Path_307" data-name="Path 307" d="M278.987,231.84l-4.226,1.657a2.2,2.2,0,0,0,2.867,1.392,2.337,2.337,0,0,0,1.359-3.05Z" transform="translate(-225.606 -187.846)" fill="#f28f8f"/>
      <path id="Path_308" data-name="Path 308" d="M282.607,223.339l3.613-2.784a2.188,2.188,0,0,0-3.149-.481,2.387,2.387,0,0,0-.464,3.265Z" transform="translate(-244.937 -195.886)" fill="#263238"/>
      <path id="Path_309" data-name="Path 309" d="M281.35,225.6a1.873,1.873,0,0,0,1.856,1.906,1.923,1.923,0,1,0-1.856-1.906Z" transform="translate(-242.57 -193.223)" fill="#263238"/>
      <path id="Path_310" data-name="Path 310" d="M284.051,222.74l-.613,11.138-5.817-1.972Z" transform="translate(-235.243 -193.828)" fill="#f28f8f"/>
      <path id="Path_311" data-name="Path 311" d="M270.249,399.247V397.59c-1.144.481-3.779,10.558-8.486,14.916-3.746,3.414-8.85,7.342-10.143,11.154s7.11,6.149,10.607,5.519c4.061-.713,11.1-3.58,12.861-6.232s2.6-6.63,4.044-8.5,4.74-4.11,5.519-6.364a14.354,14.354,0,0,0-.68-6.232c-.547-2.088-1.144-4.392-1.856-4.193v1.293a9.53,9.53,0,0,1-5.933,2.005C274.442,400.921,270.233,400.573,270.249,399.247Z" transform="translate(-192.62 -78.885)" fill="#263238"/>
      <path id="Path_312" data-name="Path 312" d="M302.476,391.551c-.63,0-1.127.9-2.486,2.37a25.907,25.907,0,0,1-6.978,4.972c-4.442,2.237-13.077,5.652-16.988,7.408-2.436,1.11-2.32,4.061.2,5.735s8.618,2.884,15.927,1.243c3.994-.878,9.182-4.574,12.464-4.376s9.431.166,11.85-1.508,1.458-5.237.779-8.287c-.746-3.315-1.823-8.469-2.934-8.287v1.061c-1.442,2.155-8.7,3.033-11.834,1.458Z" transform="translate(-263.646 -83.338)" fill="#263238"/>
      <path id="Path_313" data-name="Path 313" d="M287.934,314.754a43.854,43.854,0,0,1-16.574-9.464s3.182,5.967,12.662,11.519l-.2,32.335Z" transform="translate(-228.751 -139.562)" fill="#263238"/>
      <path id="Path_314" data-name="Path 314" d="M245.385,353.769c1.956-1.657,3.182-3.8,6.132-5.967a15.746,15.746,0,0,0,5.221-5.287c1.657-2.784,3.315-12.066,3.812-20.883a86.68,86.68,0,0,0-4.094-29.054c-4.027-11.121-12.2-26.037-14.916-32.335s-1.26-9.464,1.177-12.662c2.851-3.746,8.138-3.762,13.126,4.773a183.008,183.008,0,0,1,15.811,37.473,91.369,91.369,0,0,1,2.867,29.949c-.547,9.331-2.585,16.458-5.2,25.424-.729,2.436-.646,4.425-1.475,9.248a20.568,20.568,0,0,1-1.525,5.85,26.651,26.651,0,0,1-4.26,6.149,17.834,17.834,0,0,1-7.939,4.972,11.087,11.087,0,0,1-5.155.282,7.359,7.359,0,0,1-4.392-2.586,2.1,2.1,0,0,1-.464-.945,2.42,2.42,0,0,1,.68-1.657,106.955,106.955,0,0,0,6.63-8.618c1.525-2.569,2.254-4.607,1.657-4.491s-1.376,1.657-3.6,3.05-4.972,1.342-5.618.1S243.38,355.459,245.385,353.769Z" transform="translate(-163.712 -179.074)" fill="#ffa8a7"/>
      <path id="Path_315" data-name="Path 315" d="M248.754,243.75c4.74.282,9.049,1.342,13.789,10.74s12.182,27,12.182,27a20.419,20.419,0,0,1-18.115,10.458s-10.906-22.772-12.679-28.772S240.932,247.479,248.754,243.75Z" transform="translate(-167.893 -180.017)" fill="#7436b4"/>
      <path id="Path_316" data-name="Path 316" d="M248.754,243.75c4.74.282,9.049,1.342,13.789,10.74s12.182,27,12.182,27a20.419,20.419,0,0,1-18.115,10.458s-10.906-22.772-12.679-28.772S240.932,247.479,248.754,243.75Z" transform="translate(-167.893 -180.017)" opacity="0.1"/>
      <path id="Path_317" data-name="Path 317" d="M284.239,275.67c1.077,3.149,11.419,12.745,19.027,15.795a10.408,10.408,0,0,0,5.6.331A14.055,14.055,0,0,1,314.5,290.7c2.221.2,4.475.63,6.712.9a3.316,3.316,0,0,1,1.342.331c1.359.746.58,1.889-.5,2.3a39.664,39.664,0,0,1-5.32,1.508v.481a53.215,53.215,0,0,0,14.353,2.884,4.011,4.011,0,0,1,2.4.829,2.519,2.519,0,0,1,.547,2.353,6.132,6.132,0,0,1-1.16,2.2,13.773,13.773,0,0,1-8.652,5.884,26.765,26.765,0,0,1-10.591-1.326q-2.469-.7-4.873-1.541a110.51,110.51,0,0,1-13.673-6.116,123.375,123.375,0,0,1-26.087-18.347c-4.773-4.657-3.6-9.132.414-14.535" transform="translate(-265.894 -163.74)" fill="#ffa8a7"/>
      <path id="Path_318" data-name="Path 318" d="M292.574,283.25s-1.657-.613-3.547,2.42-3.083,8.569-.713,9.663a4.707,4.707,0,0,1-4.177-2.072,11.751,11.751,0,0,1,4.177-11.8,6.281,6.281,0,0,1,4.259,1.79Z" transform="translate(-254.092 -155.227)" fill="#37474f"/>
      <path id="Path_319" data-name="Path 319" d="M285.684,283.9a3.514,3.514,0,1,0,4.773-1.26,3.514,3.514,0,0,0-4.773,1.26Z" transform="translate(-255.969 -154.764)" fill="#7436b4"/>
      <path id="Path_320" data-name="Path 320" d="M286.094,284a2.569,2.569,0,1,0,1.561-1.2,2.585,2.585,0,0,0-1.561,1.2Z" transform="translate(-255.567 -154.404)" fill="#fafafa"/>
    </g>
  </g>
</svg>
